<?xml version="1.0" standalone="no"?>
<!DOCTYPE svg PUBLIC "-//W3C//DTD SVG 20010904//EN"
        "http://www.w3.org/TR/2001/REC-SVG-20010904/DTD/svg10.dtd">
<svg version="1.0" xmlns="http://www.w3.org/2000/svg"
     width="1280.000000pt" height="1079.000000pt" viewBox="0 0 1280.000000 1079.000000"
     preserveAspectRatio="xMidYMid meet">
    <metadata>
        Created by potrace 1.15, written by Peter Selinger 2001-2017
    </metadata>
    <g transform="translate(0.000000,1079.000000) scale(0.100000,-0.100000)"
       fill="#000000" stroke="none">
        <path d="M4585 10727 c-180 -321 -483 -631 -753 -770 -217 -113 -312 -134
-662 -147 -421 -16 -671 -55 -925 -142 -209 -72 -361 -163 -479 -289 -119
-126 -181 -270 -193 -446 -6 -83 -6 -83 -34 -83 -18 0 -52 19 -99 53 -39 30
-110 77 -158 106 -107 64 -601 311 -623 311 -14 0 -17 -25 -22 -182 -15 -410
-6 -595 35 -730 l20 -67 -30 -53 c-67 -120 -103 -243 -122 -418 -9 -86 -8
-133 5 -260 31 -296 31 -270 -4 -336 -41 -78 -152 -207 -232 -271 -108 -86
-212 -202 -252 -281 -108 -217 -65 -413 160 -717 35 -47 63 -89 63 -94 0 -5
40 -63 90 -129 99 -132 161 -189 260 -236 62 -30 71 -31 190 -31 145 0 199 15
400 112 63 30 139 63 169 73 l54 17 103 -61 c128 -74 234 -162 296 -244 l47
-61 -6 -378 c-7 -476 9 -725 64 -983 29 -140 37 -124 -60 -137 -161 -22 -419
-126 -578 -233 -131 -89 -229 -219 -304 -405 -172 -427 -238 -1123 -154 -1633
22 -134 40 -196 66 -224 10 -11 12 -18 5 -18 -41 0 13 -152 102 -290 71 -109
131 -164 202 -185 81 -24 328 -16 464 14 242 54 492 162 644 279 l59 45 -7
-29 c-3 -16 -9 -83 -13 -150 -5 -109 -8 -121 -27 -130 -59 -26 -100 -178 -101
-374 0 -154 5 -170 78 -237 81 -74 237 -134 432 -164 102 -16 446 -16 550 0
257 39 417 91 538 173 93 63 102 92 102 308 -1 189 -13 256 -48 254 -16 -2
-17 38 -17 625 l0 626 107 115 c127 138 220 248 297 353 l57 77 247 1 c136 0
357 6 492 13 135 7 247 11 249 9 2 -2 -1 -78 -8 -170 -23 -339 -10 -653 33
-798 38 -125 150 -265 369 -458 279 -246 380 -341 396 -371 111 -204 273 -363
423 -416 68 -24 174 -26 242 -6 35 11 48 11 50 3 2 -7 10 -43 19 -80 20 -82
49 -122 140 -193 163 -127 334 -179 597 -179 137 0 183 4 270 23 374 84 662
300 778 584 40 99 40 144 2 217 -43 81 -138 171 -179 171 -21 0 -31 5 -31 15
0 8 -13 29 -29 47 -45 52 -68 108 -82 193 -17 115 5 269 90 611 72 292 91 395
91 492 -1 122 -32 182 -185 359 -168 194 -224 265 -255 327 -45 89 -42 119 33
266 182 359 267 844 221 1261 -8 67 -16 62 136 83 500 71 881 56 1170 -46 231
-82 361 -173 695 -487 110 -104 232 -215 270 -248 349 -297 787 -521 1154
-588 113 -21 324 -16 416 9 86 24 190 79 265 139 190 154 338 472 375 807 l8
65 -89 -91 c-117 -120 -234 -205 -369 -270 -148 -70 -221 -88 -370 -88 -95 -1
-138 4 -204 22 -144 39 -358 128 -251 105 19 -5 109 -8 200 -8 142 0 176 4
244 23 138 40 229 94 331 197 129 130 199 260 249 460 23 94 50 274 42 282 -2
2 -26 -27 -54 -64 -148 -200 -362 -342 -587 -390 -91 -19 -261 -19 -367 1
-166 31 -357 111 -533 221 -127 80 -127 85 0 22 256 -128 529 -193 702 -167
176 27 285 117 342 283 34 99 46 275 25 377 -5 23 -7 22 -23 -15 -67 -147
-294 -178 -650 -89 -74 19 -136 34 -138 34 -1 0 -3 5 -3 10 0 6 7 10 15 10 32
0 132 60 172 103 48 52 65 82 87 157 30 100 18 342 -22 450 -9 23 -10 22 -17
-19 -10 -60 -80 -131 -157 -159 -246 -91 -703 -14 -1403 234 -185 66 -356 112
-505 136 -127 20 -499 17 -620 -6 -356 -64 -646 -190 -932 -403 -55 -41 -119
-92 -143 -114 l-43 -40 -59 29 c-216 109 -479 162 -805 162 -324 0 -589 -41
-1148 -176 -1020 -247 -1178 -267 -1364 -172 -89 45 -209 185 -263 306 -43 96
-109 309 -100 319 2 1 45 -7 97 -18 71 -16 147 -22 300 -26 343 -9 500 20
1005 190 229 77 646 229 642 234 -4 3 -136 26 -312 53 -152 23 -202 31 -255
40 -30 5 -78 12 -105 15 -28 3 -57 10 -63 14 -15 9 242 47 428 62 169 14 521
6 655 -15 270 -43 494 -127 670 -251 77 -54 189 -168 222 -223 14 -24 28 -41
30 -38 16 16 -56 253 -109 361 -168 336 -464 536 -873 591 l-50 6 45 14 c25 8
113 32 195 54 574 151 1168 176 1759 74 360 -61 816 -216 1086 -369 35 -20 64
-34 66 -32 7 7 -140 169 -252 277 -518 500 -1207 831 -1944 934 -175 24 -227
29 -424 35 l-188 6 93 39 c205 85 462 231 654 370 49 36 96 66 104 66 7 0 126
25 264 55 543 120 719 145 1034 145 255 0 404 -20 549 -75 37 -14 68 -25 70
-25 3 0 -4 17 -15 38 -54 107 -205 187 -431 228 -105 20 -407 23 -849 9 l-234
-7 85 95 c149 167 312 391 438 601 55 92 200 374 200 390 0 6 -23 -17 -52 -50
-286 -326 -710 -692 -1107 -953 l-151 -99 -197 -8 c-335 -14 -1509 -11 -1658
4 -564 57 -893 160 -1310 410 -136 81 -430 283 -498 342 -4 4 25 15 65 25 95
23 227 80 325 141 100 61 281 241 352 349 114 173 216 424 256 628 9 49 15 90
13 92 -2 2 -17 -19 -33 -48z m-1825 -7826 c47 -22 127 -54 177 -71 l91 -32
-68 -111 c-173 -285 -329 -630 -441 -972 l-13 -40 -8 70 c-19 185 -48 289 -77
283 -13 -3 -18 11 -27 62 -6 36 -41 144 -77 240 -81 214 -100 288 -95 356 4
44 10 57 38 81 89 75 184 120 325 153 44 10 82 19 84 19 2 1 43 -17 91 -38z
m4610 -103 c32 -53 44 -183 30 -327 -23 -244 -72 -439 -147 -583 -42 -82 -47
-88 -76 -88 -18 0 -40 -9 -54 -22 l-24 -22 -87 43 c-288 142 -489 269 -610
385 -105 101 -143 172 -143 268 0 79 5 100 48 211 40 99 27 92 188 106 61 6
187 17 280 25 94 9 251 23 350 32 99 8 182 17 184 19 8 9 43 -18 61 -47z"/>
    </g>
</svg>
